Coordinates
version=1
nRows=14
nColumns=32
inDegrees=yes

Units are S.I. units (second, meters, Newtons, ...)
If the header above contains a line with 'inDegrees', this indicates whether rotational values are in degrees (yes) or radians (no).

endheader
time	pelvis_tilt	pelvis_list	pelvis_rotation	pelvis_tx	pelvis_ty	pelvis_tz	hip_flexion_r	hip_adduction_r	hip_rotation_r	knee_angle_r	knee_adduction_r	med_cond_adduction_r	lat_cond_adduction_r	patella_r_constrained_knee_angle	ankle_angle_r	subtalar_angle_r	mtp_angle_r	hip_flexion_l	hip_adduction_l	hip_rotation_l	knee_angle_l	knee_adduction_l	med_cond_adduction_l	lat_cond_adduction_l	patella_l_constrained_knee_angle	ankle_angle_l	subtalar_angle_l	mtp_angle_l	lumbar_extension	lumbar_bending	lumbar_rotation
      0.00000000	      1.87880304	      3.79881018	     -2.63871473	      0.26753783	      0.91594116	     -1.21455193	     -1.52049268	    -24.88971526	    -32.40084619	     -7.90016426	      3.37807999	     -0.00000000	     -0.00000000	     -0.13788388	     -6.09399934	      8.86982846	     -0.00000000	     -2.47552493	    -13.55737442	    -38.20768319	     -5.09795719	     -0.56582938	      0.00000000	      0.00000000	     -0.08897614	     -6.83212694	     16.98878586	      0.00000000	     -3.10288320	     -1.96503472	      1.15661942
      0.00500000	      1.85428351	      3.83185430	     -2.64243663	      0.26749359	      0.91591226	     -1.21454666	     -1.46602697	    -24.93231404	    -32.39773065	     -7.93589136	      3.36833684	      0.00000000	      0.00000000	     -0.13850743	     -6.08141605	      8.86876893	      0.00000000	     -2.44031741	    -13.49310026	    -38.19226268	     -5.06159271	     -0.61939732	      0.00000000	      0.00000000	     -0.08834146	     -6.86577359	     16.99084465	      0.00000000	     -3.07726022	     -1.98474355	      1.19418016
      0.01000000	      1.88360532	      3.71359437	     -2.50454912	      0.26745469	      0.91603340	     -1.21485742	     -1.74234238	    -24.71000067	    -32.37095366	     -7.54157982	      3.43917955	      0.00000000	      0.00000000	     -0.13162540	     -6.36166034	      8.37721441	     -0.00000000	     -2.37358280	    -13.67633967	    -38.13142687	     -5.22853885	     -0.60128023	     -0.00000000	     -0.00000000	     -0.09125522	     -6.74189779	     17.07868303	     -0.00000000	     -3.13304530	     -1.86335775	      0.97036907
      0.01500000	      1.88521616	      3.68686755	     -2.49423842	      0.26742950	      0.91604622	     -1.21485856	     -1.75280018	    -24.66340999	    -32.37891723	     -7.51314103	      3.41964639	      0.00000000	      0.00000000	     -0.13112905	     -6.39116119	      8.37218464	     -0.00000000	     -2.36574028	    -13.71309464	    -38.12039707	     -5.25128477	     -0.60158442	      0.00000000	      0.00000000	     -0.09165221	     -6.72825611	     17.08306383	      0.00000000	     -3.14202941	     -1.84553368	      0.94496980
      0.02000000	      1.87001512	      3.77894829	     -2.57835094	      0.26742203	      0.91594240	     -1.21469087	     -1.55103317	    -24.88841900	    -32.49763211	     -7.88101667	      3.43465787	     -0.00000000	     -0.00000000	     -0.13754969	     -6.15177187	      8.78714260	      0.00000000	     -2.42684081	    -13.57348991	    -38.14680623	     -5.10775457	     -0.58463459	      0.00000000	      0.00000000	     -0.08914713	     -6.83734759	     16.97167607	      0.00000000	     -3.11483600	     -1.94793559	      1.07853999
      0.02500000	      1.88263197	      3.70546067	     -2.51394773	      0.26735705	      0.91603337	     -1.21483310	     -1.72731748	    -24.70014920	    -32.36329289	     -7.53795861	      3.44016796	      0.00000000	     -0.00000000	     -0.13156220	     -6.38275268	      8.35848115	      0.00000000	     -2.36749119	    -13.69005536	    -38.13619188	     -5.23945932	     -0.59470410	     -0.00000000	     -0.00000000	     -0.09144582	     -6.74129228	     17.06802774	     -0.00000000	     -3.14991872	     -1.86699715	      0.97440834
      0.03000000	      1.88160996	      3.73561040	     -2.53670061	      0.26734474	      0.91600264	     -1.21478452	     -1.67318961	    -24.76972838	    -32.39854366	     -7.64376704	      3.44964050	      0.00000000	      0.00000000	     -0.13340890	     -6.31840279	      8.48219831	      0.00000000	     -2.39633256	    -13.64598781	    -38.13815507	     -5.18988348	     -0.58103565	     -0.00000000	     -0.00000000	     -0.09058055	     -6.77882400	     17.02621254	      0.00000000	     -3.14655386	     -1.89476618	      1.02800160
      0.03500000	      1.87457734	      3.71442087	     -2.50491104	      0.26727311	      0.91602795	     -1.21485892	     -1.71557505	    -24.71208788	    -32.36394657	     -7.53684054	      3.44623601	      0.00000000	      0.00000000	     -0.13154268	     -6.39661141	      8.33116172	     -0.00000000	     -2.34408211	    -13.67093701	    -38.12198355	     -5.23481691	     -0.61619581	     -0.00000000	     -0.00000000	     -0.09136479	     -6.74032384	     17.08517139	     -0.00000000	     -3.15586525	     -1.88220375	      0.96556770
      0.04000000	      1.88339784	      3.69163957	     -2.61783648	      0.26723294	      0.91599558	     -1.21455634	     -1.55739960	    -24.71919275	    -32.38446118	     -7.75975748	      3.36548820	     -0.00000000	     -0.00000000	     -0.13543332	     -6.21580566	      8.67680827	     -0.00000000	     -2.43167246	    -13.71484435	    -38.19013649	     -5.19033037	     -0.53925923	      0.00000000	      0.00000000	     -0.09058835	     -6.76981994	     16.98624608	      0.00000000	     -3.16840190	     -1.86429049	      1.10804227
      0.04500000	      1.88144155	      3.69997975	     -2.52278795	      0.26719288	      0.91602534	     -1.21480372	     -1.70088086	    -24.69850582	    -32.36786999	     -7.55400877	      3.44099666	     -0.00000000	     -0.00000000	     -0.13184232	     -6.37428796	      8.36227027	      0.00000000	     -2.35327168	    -13.70407611	    -38.13858738	     -5.25815692	     -0.58598073	     -0.00000000	     -0.00000000	     -0.09177215	     -6.71938001	     17.05638245	     -0.00000000	     -3.17764888	     -1.87575169	      0.98667416
      0.05000000	      1.87247966	      3.71532022	     -2.48526018	      0.26716699	      0.91600676	     -1.21488962	     -1.71476429	    -24.72123192	    -32.41293510	     -7.54463937	      3.45632850	      0.00000000	      0.00000000	     -0.13167880	     -6.38614952	      8.35079147	      0.00000000	     -2.31729213	    -13.68439909	    -38.10583437	     -5.26977269	     -0.60575337	      0.00000000	      0.00000000	     -0.09197488	     -6.71693544	     17.06549903	     -0.00000000	     -3.17689504	     -1.89907752	      0.93700739
      0.05500000	      1.86648811	      3.71761236	     -2.44131065	      0.26712301	      0.91600734	     -1.21499683	     -1.75159271	    -24.72927046	    -32.44328165	     -7.51066091	      3.49911825	     -0.00000000	     -0.00000000	     -0.13108576	     -6.42177395	      8.25545317	      0.00000000	     -2.28502035	    -13.68022387	    -38.07837249	     -5.28509471	     -0.61726285	      0.00000000	      0.00000000	     -0.09224230	     -6.71461378	     17.09078064	      0.00000000	     -3.17165990	     -1.96858147	      0.77673158
      0.06000000	      1.86594681	      3.72870344	     -2.46441705	      0.26706059	      0.91600483	     -1.21491751	     -1.71786004	    -24.73834959	    -32.42582935	     -7.53516521	      3.47524405	      0.00000000	      0.00000000	     -0.13151344	     -6.40217542	      8.30217324	      0.00000000	     -2.28620068	    -13.67055328	    -38.08609069	     -5.28304956	     -0.61256014	     -0.00000000	     -0.00000000	     -0.09220661	     -6.72464700	     17.07235540	      0.00000000	     -3.18629705	     -1.95088143	      0.88346024
      0.06500000	      1.86863506	      3.72919053	     -2.44082100	      0.26701370	      0.91601274	     -1.21497994	     -1.74905043	    -24.73769785	    -32.43021411	     -7.50065875	      3.49717556	      0.00000000	      0.00000000	     -0.13091119	     -6.42246519	      8.22804617	      0.00000000	     -2.27573587	    -13.67166023	    -38.06942490	     -5.29318505	     -0.61667009	      0.00000000	      0.00000000	     -0.09238351	     -6.71808443	     17.09218876	     -0.00000000	     -3.19795039	     -1.98245338	      0.80322295
